<svg version="1.1" viewBox="0.0 0.0 1695.4671916010498 603.0787401574803" fill="none" stroke="none" stroke-linecap="square" stroke-miterlimit="10" xmlns:xlink="http://www.w3.org/1999/xlink" xmlns="http://www.w3.org/2000/svg"><clipPath id="p.0"><path d="m0 0l1695.4672 0l0 603.07874l-1695.4672 0l0 -603.07874z" clip-rule="nonzero"/></clipPath><g clip-path="url(#p.0)"><path fill="#000000" fill-opacity="0.0" d="m0 0l1695.4672 0l0 603.07874l-1695.4672 0z" fill-rule="evenodd"/><path fill="#0c343d" d="m11.975459 109.66073l0 0c0 -53.388596 43.280006 -96.6686 96.6686 -96.6686l420.6786 0c25.638062 0 50.226135 10.184699 68.35498 28.313576c18.128906 18.12888 28.313599 42.71692 28.313599 68.35503l0 386.66278c0 53.38858 -43.28003 96.66861 -96.66858 96.66861l-420.6786 0c-53.38859 0 -96.6686 -43.28003 -96.6686 -96.66861z" fill-rule="evenodd"/><path fill="#ffffff" d="m88.98333 302.99213l0 0c0 -125.36429 102.97451 -226.99213 230.0 -226.99213l0 0c60.999786 0 119.50119 23.915176 162.63455 66.48445c43.133392 42.56929 67.36545 100.30562 67.36545 160.50768l0 0c0 125.36429 -102.97452 226.99213 -230.0 226.99213l0 0c-127.0255 0 -230.0 -101.62784 -230.0 -226.99213zm25.032692 0l0 0c0 111.53912 91.767 201.95944 204.96732 201.95944c113.20032 0 204.96729 -90.42032 204.96729 -201.95944l0 0c0 -111.53912 -91.76697 -201.95944 -204.96729 -201.95944l0 0c-113.20032 0 -204.96732 90.42031 -204.96732 201.95944z" fill-rule="evenodd"/><path fill="#ffffff" d="m32.983334 184.0l94.91417 -8.485962l8.093712 -99.51404l8.093704 99.51404l94.91417 8.485962l-94.91417 8.485962l-8.093704 99.51404l-8.093712 -99.51404z" fill-rule="evenodd"/><path fill="#0c343d" d="m698.91187 236.56595c-2.367859 0 -4.824585 0.5031738 -7.370056 1.5095367c-2.5455322 0.9915619 -5.0021973 2.256897 -7.370117 3.7960358l0.13317871 0c-2.3530884 1.7315369 -4.1660156 3.988449 -5.4387817 6.7707367c-1.2727661 2.7674866 -1.9091187 5.9715576 -1.9091187 9.612228l0 16.22754c0 7.177704 2.4493408 12.67569 7.3479004 16.493927c5.0021973 3.4630737 9.871216 5.1946106 14.606995 5.1946106l26.30597 0c3.3742676 0 5.7421265 0.9767456 7.1036987 2.9302673c1.3615723 1.9535217 2.0423584 4.062439 2.0423584 6.3267517l0 16.516144c0 2.3678894 -0.68078613 4.5064087 -2.0423584 6.4155273c-1.3615723 1.9091492 -3.7294312 2.8637085 -7.1036987 2.8637085l-22.909485 0c-3.359497 0 -5.7199707 -0.9545593 -7.081543 -2.8637085c-1.3615112 -1.9091187 -2.0422974 -4.047638 -2.0422974 -6.4155273l0 -7.9250793c0 -4.2622375 -2.7304688 -6.393341 -8.191467 -6.393341c-5.357422 0 -8.036072 2.1311035 -8.036072 6.393341l0 9.012848c0 7.3700867 2.4493408 12.8680725 7.3479004 16.493927c2.36792 1.7315369 4.802368 3.0782776 7.303528 4.0402527c2.5010376 0.94714355 4.935547 1.4207153 7.303467 1.4207153l29.72461 0c2.36792 0 4.802429 -0.47357178 7.303528 -1.4207153c2.5010986 -0.9619751 4.935547 -2.3087158 7.303528 -4.0402527c4.8985596 -3.6258545 7.3479004 -9.12384 7.3479004 -16.493927l0 -18.69165c0 -3.6406555 -0.63635254 -6.8669434 -1.9091187 -9.678833c-1.2727661 -2.8118896 -3.0856934 -5.0391846 -5.4387817 -6.6819153l0.13317871 0c-2.36792 -1.6427612 -4.824585 -2.9599 -7.370117 -3.9514465c-2.5454712 -1.0063782 -5.002136 -1.509552 -7.370117 -1.509552l-26.328125 0c-3.359497 0 -5.7199707 -0.9323425 -7.081543 -2.7970886c-1.3615112 -1.8647156 -2.0422974 -3.9736328 -2.0422974 -6.3267517l0 -13.918823c0 -2.2791138 0.68078613 -4.37323 2.0422974 -6.282364c1.3615723 -1.9091187 3.722107 -2.863678 7.081543 -2.863678l22.909485 0c3.3742676 0 5.7421265 0.9545593 7.1036987 2.863678c1.3615723 1.9091339 2.0423584 4.00325 2.0423584 6.282364l0 6.8151245c0 4.2770386 2.6860962 6.4155273 8.058228 6.4155273c5.446228 0 8.169312 -2.1384888 8.169312 -6.4155273l0 -8.036072c0 -3.6406708 -0.63635254 -6.844742 -1.9091187 -9.612228c-1.2727661 -2.7822876 -3.0856934 -5.0392 -5.4387817 -6.7707367l0.13317871 0c-2.36792 -1.5391388 -4.824585 -2.8044739 -7.370117 -3.7960358c-2.5454712 -1.0063629 -5.002136 -1.509552 -7.370117 -1.5095367z" fill-rule="evenodd"/><path fill="#0c343d" d="m781.14557 241.60513c-5.1798096 0 -7.7697144 2.1829224 -7.7697144 6.5487366l0 14.584839l-5.327759 0c-3.4483032 0 -5.1724243 2.1384888 -5.1724243 6.4155273c0.1776123 4.2770386 1.9017334 6.415558 5.1724243 6.415558l5.327759 0l0 49.770386c0 7.4589233 2.227356 12.646088 6.681946 15.561584l0 -0.13317871c2.367859 1.4503174 4.824585 2.5603027 7.370117 3.3298645c2.5454712 0.76956177 5.2685547 1.1543274 8.1692505 1.1543274l4.5064087 0c3.3742676 0 5.0614014 -2.1311035 5.0614014 -6.393341c0.1776123 -4.188202 -1.5095215 -6.2823486 -5.0614014 -6.2823486l-3.5518188 0c-3.270691 0 -5.4092407 -0.63635254 -6.4155884 -1.9091187c-0.9915161 -1.2727356 -1.4873047 -3.0930786 -1.4873047 -5.460968l0 -49.637207l11.321533 0c3.359497 0 5.0391846 -2.1385193 5.0391846 -6.415558c0.19238281 -4.2770386 -1.4873047 -6.4155273 -5.0391846 -6.4155273l-11.321533 0l0 -14.584839c0 -4.365814 -2.5010986 -6.5487366 -7.503296 -6.5487366z" fill-rule="evenodd"/><path fill="#0c343d" d="m840.0801 262.7387c-2.36792 0 -4.8468018 0.5031738 -7.4367065 1.5095215c-2.5899048 0.99157715 -5.0687866 2.2643127 -7.4367065 3.8182373l0.13317871 0c-2.2791138 1.7315369 -4.0772095 3.8700562 -5.394348 6.415558c-1.3171387 2.5455017 -1.975769 5.6829834 -1.975769 9.412415l0 1.2209473c0 4.721039 2.5455322 7.081543 7.6365356 7.081543c5.0910034 0 7.6364746 -2.3605042 7.6364746 -7.081543l0 -1.087738c0 -2.2791138 0.65856934 -4.2548523 1.975708 -5.927185c1.3319702 -1.6871033 3.722107 -2.5306702 7.170349 -2.5306702l15.961121 0c3.359497 0 5.7421875 0.9323425 7.1481323 2.7970886c1.4207764 1.8647156 2.1311035 3.9292297 2.1311035 6.1935425l0 12.697876l-30.146362 0c-2.36792 0 -4.824646 0.38479614 -7.370117 1.1543579c-2.5455322 0.7695923 -4.9578247 1.9313354 -7.2369385 3.48526l0.15539551 0c-2.367859 1.6279297 -4.210388 3.8330383 -5.527527 6.6153564c-1.3171387 2.7674866 -1.975769 6.0159607 -1.975769 9.745392l0 6.681946c0 7.547699 2.227295 12.727478 6.681946 15.539368l0 -0.13317871c2.3530884 1.4651184 4.802429 2.582489 7.3479004 3.3520508c2.5603027 0.76956177 5.246399 1.1543579 8.058289 1.1543579l17.8703 0c1.7315063 0 3.0042725 -0.61416626 3.8182373 -1.8425293c0.81396484 -1.228363 1.2209473 -2.7526855 1.2209473 -4.5730286c0 -4.277008 -1.6797485 -6.4155273 -5.0391846 -6.4155273l-15.27301 0c-3.4630737 0 -5.897583 -0.606781 -7.303528 -1.820343c-1.4058838 -1.2283325 -2.1088867 -3.0264587 -2.1088867 -5.3943787l0 -5.3277893c0 -1.0951538 0.15539551 -2.0718994 0.46618652 -2.9302673c0.32556152 -0.8583679 0.85095215 -2.0645142 1.5761108 -3.6184692c0.6364136 -0.99154663 1.494751 -1.7167053 2.5751343 -2.1755066c1.0951538 -0.45877075 2.6490479 -0.6881714 4.661804 -0.6881714l27.549072 0l0.13323975 29.880005c0 1.2727661 0.19976807 2.2939148 0.59936523 3.0634766c0.41436768 0.76956177 0.9619751 1.3615417 1.6427002 1.77594c0.68078613 0.41436768 1.4503784 0.6659546 2.3087158 0.75476074c0.87316895 0.08880615 1.8129272 0.13317871 2.819275 0.13317871c4.9874268 0 7.48114 -2.1828918 7.48114 -6.5487366l0 -54.69861c0 -3.6406555 -0.6364136 -6.8447266 -1.9091187 -9.612213c-1.2727661 -2.7674866 -3.0856934 -5.0169983 -5.4387817 -6.748535l0.13317871 0c-2.2791138 -1.5539246 -4.713623 -2.8266602 -7.303528 -3.8182373c-2.5899048 -1.0063477 -5.024414 -1.5095215 -7.303467 -1.5095215z" fill-rule="evenodd"/><path fill="#0c343d" d="m921.7692 262.7387c-5.816162 0 -10.951599 1.4577332 -15.406189 4.3731995c-4.454651 2.9154968 -6.681946 8.095276 -6.681946 15.539398l0 56.474518c0 4.3658447 2.5899048 6.5487366 7.7697144 6.5487366c5.002136 0 7.503296 -2.1828918 7.503296 -6.5487366l0 -56.34134c0 -2.2643127 0.49572754 -4.032837 1.4873047 -5.3055725c1.0063477 -1.2727661 3.1448975 -1.9091187 6.4155273 -1.9091187l14.45166 0c3.5518188 0 5.2389526 -2.1385193 5.0614014 -6.415558c0 -4.2770386 -1.6871338 -6.4155273 -5.0614014 -6.4155273z" fill-rule="evenodd"/><path fill="#0c343d" d="m962.0103 235.32278c-5.0910034 0 -7.6364746 2.1385193 -7.6364746 6.4155426l0 97.787094c0 4.2770386 2.5454712 6.415558 7.6364746 6.415558c5.0021973 0 7.503296 -2.1385193 7.503296 -6.415558l0 -97.787094c0 -4.2770233 -2.5010986 -6.4155426 -7.503296 -6.4155426z" fill-rule="evenodd"/><path fill="#0c343d" d="m996.24774 234.52362c-2.9155273 0 -5.4017944 0.9989624 -7.4589233 2.9968872c-2.0422974 1.9979095 -3.0634766 4.499008 -3.0634766 7.503296c0 2.9006805 1.0211792 5.357376 3.0634766 7.370102c2.057129 1.9979248 4.543457 2.9968872 7.4589233 2.9968872c2.9006348 0 5.3499756 -0.9989624 7.3479004 -2.9968872c2.0126953 -2.0127106 3.019043 -4.4694214 3.019043 -7.370102c0 -3.0042877 -1.0063477 -5.5053864 -3.019043 -7.503296c-1.9979248 -1.9979248 -4.4472656 -2.9968872 -7.3479004 -2.9968872zm0 27.682281c-5.0910034 0 -7.6365356 2.1829224 -7.6365356 6.5487366l0 70.371185c0 4.3658447 2.5455322 6.5487366 7.6365356 6.5487366c4.9873657 0 7.481079 -2.1828918 7.481079 -6.5487366l0 -70.371185c0 -4.365814 -2.4937134 -6.5487366 -7.481079 -6.5487366z" fill-rule="evenodd"/><path fill="#0c343d" d="m1044.515 262.7387c-2.3531494 0 -4.7580566 0.41436768 -7.2147217 1.2431335c-2.456787 0.81396484 -4.8690186 1.9461365 -7.2369385 3.3964539c-2.2791748 1.5539551 -4.0772705 3.6924744 -5.394409 6.415558c-1.3171387 2.7230835 -1.975708 5.993744 -1.975708 9.812012l0 30.834564c0 7.547699 2.456665 12.912476 7.370117 16.09436c2.36792 1.5391235 4.802368 2.7230835 7.303467 3.5518494c2.5010986 0.81396484 4.9282227 1.2209473 7.281372 1.2209473l16.516113 0c1.7315674 0 2.9820557 -0.59198 3.751587 -1.77594c0.7696533 -1.1839294 1.154419 -2.7304688 1.154419 -4.6395874c0 -4.1734314 -1.635376 -6.2601624 -4.906006 -6.2601624l-14.185181 0c-3.359497 0 -5.749634 -0.9767456 -7.17041 -2.9302673c-1.4058838 -1.9683228 -2.1088867 -4.084656 -2.1088867 -6.3489685l0 -28.792236c0 -2.2643127 0.7030029 -4.328827 2.1088867 -6.1935425c1.4207764 -1.8647461 3.810913 -2.7970886 7.17041 -2.7970886l17.048828 0c3.359497 0 5.7421875 0.9323425 7.1481934 2.7970886c1.4206543 1.8647156 2.1311035 3.9292297 2.1311035 6.1935425l0 57.562286c0 2.36792 -0.7104492 4.506439 -2.1311035 6.415558c-1.4060059 1.9091187 -3.7886963 2.863678 -7.1481934 2.863678l-17.048828 0c-3.359497 0 -5.749634 -0.59198 -7.17041 -1.77594c-1.4058838 -1.18396 -2.1088867 -2.271698 -2.1088867 -3.2632446l0 -1.509552c0 -3.4482727 -2.5455322 -5.4461975 -7.6364746 -5.9937744c-2.5455322 0 -4.4102783 0.5475769 -5.5942383 1.6427612c-1.1838989 1.0803528 -1.7758789 2.5306702 -1.7758789 4.351013l0 1.6427307c0 2.9894714 0.5697632 5.6237793 1.7093506 7.902893c1.1395264 2.2790833 2.9820557 4.1438293 5.527588 5.5941772c4.91333 2.8118896 9.775024 4.2178345 14.584839 4.2178345l22.909424 0c2.36792 0 4.7580566 -0.48098755 7.170288 -1.4429626c2.4123535 -0.94714355 4.661865 -2.2790833 6.748535 -3.995819c2.1903076 -1.820343 3.892334 -4.07724 5.105835 -6.770752c1.2283936 -2.6786804 1.8425293 -5.9271545 1.8425293 -9.745392l0 -57.828705c0 -3.5370483 -0.63635254 -6.7115173 -1.9091797 -9.523407c-1.2727051 -2.8266907 -2.9523926 -5.1058044 -5.0391846 -6.8373413c-2.08667 -1.5539246 -4.3583984 -2.8266602 -6.8150635 -3.8182373c-2.456787 -1.0063477 -4.824585 -1.5095215 -7.10376 -1.5095215z" fill-rule="evenodd"/><path fill="#0c343d" d="m1114.0771 235.74457c-5.0021973 0 -7.503296 2.1829224 -7.503296 6.5487366l0 96.83252c0 4.3658447 2.5010986 6.5487366 7.503296 6.5487366c5.0021973 0 7.503296 -2.1828918 7.503296 -6.5487366l0 -63.55603l26.328125 0c3.640747 0 6.0456543 1.087738 7.2147217 3.2632446l-0.13317871 -0.13317871l0 0c1.46521 2.1903076 2.197754 4.4620056 2.197754 6.8151245l0 53.61084c0 4.3658447 2.5010986 6.5487366 7.503296 6.5487366c4.9874268 0 7.481079 -2.1828918 7.481079 -6.5487366l0 -54.831787c0 -7.458893 -2.4493408 -12.912476 -7.3479004 -16.360748c-5.0021973 -3.4630737 -9.826782 -5.19458 -14.473877 -5.19458l-28.77002 0l0 -20.445404c0 -4.365814 -2.5010986 -6.5487366 -7.503296 -6.5487366z" fill-rule="evenodd"/><path fill="#0c343d" d="m1200.5487 241.60513c-5.1798096 0 -7.7696533 2.1829224 -7.7696533 6.5487366l0 14.584839l-5.327881 0c-3.4482422 0 -5.1723633 2.1384888 -5.1723633 6.4155273c0.1776123 4.2770386 1.9017334 6.415558 5.1723633 6.415558l5.327881 0l0 49.770386c0 7.4589233 2.227295 12.646088 6.681885 15.561584l0 -0.13317871c2.36792 1.4503174 4.824585 2.5603027 7.370117 3.3298645c2.5455322 0.76956177 5.2685547 1.1543274 8.169312 1.1543274l4.5063477 0c3.3742676 0 5.0614014 -2.1311035 5.0614014 -6.393341c0.1776123 -4.188202 -1.5095215 -6.2823486 -5.0614014 -6.2823486l-3.55188 0c-3.27063 0 -5.4091797 -0.63635254 -6.4155273 -1.9091187c-0.99157715 -1.2727356 -1.4873047 -3.0930786 -1.4873047 -5.460968l0 -49.637207l11.321533 0c3.359497 0 5.0391846 -2.1385193 5.0391846 -6.415558c0.19238281 -4.2770386 -1.4873047 -6.4155273 -5.0391846 -6.4155273l-11.321533 0l0 -14.584839c0 -4.365814 -2.5010986 -6.5487366 -7.503296 -6.5487366z" fill-rule="evenodd"/><path fill="#0c343d" d="m1300.5338 236.56595c-2.36792 0 -4.824585 0.5031738 -7.370117 1.5095367c-2.5454102 0.9915619 -5.0021973 2.256897 -7.370117 3.7960358l0.13317871 0c-2.3530273 1.7315369 -4.1660156 3.988449 -5.4387207 6.7707367c-1.2727051 2.7674866 -1.9091797 5.9715576 -1.9091797 9.612228l0 16.22754c0 7.177704 2.4493408 12.67569 7.3479004 16.493927c5.0023193 3.4630737 9.871216 5.1946106 14.607056 5.1946106l26.305908 0c3.3742676 0 5.7421875 0.9767456 7.10376 2.9302673c1.3615723 1.9535217 2.0423584 4.062439 2.0423584 6.3267517l0 16.516144c0 2.3678894 -0.68078613 4.5064087 -2.0423584 6.4155273c-1.3615723 1.9091492 -3.7294922 2.8637085 -7.10376 2.8637085l-22.909424 0c-3.359497 0 -5.7199707 -0.9545593 -7.081543 -2.8637085c-1.3615723 -1.9091187 -2.0422363 -4.047638 -2.0422363 -6.4155273l0 -7.9250793c0 -4.2622375 -2.7305908 -6.393341 -8.191528 -6.393341c-5.357422 0 -8.036133 2.1311035 -8.036133 6.393341l0 9.012848c0 7.3700867 2.4493408 12.8680725 7.3479004 16.493927c2.36792 1.7315369 4.80249 3.0782776 7.303589 4.0402527c2.5010986 0.94714355 4.935547 1.4207153 7.303467 1.4207153l29.72461 0c2.36792 0 4.802368 -0.47357178 7.303467 -1.4207153c2.5010986 -0.9619751 4.935669 -2.3087158 7.303589 -4.0402527c4.8985596 -3.6258545 7.3479004 -9.12384 7.3479004 -16.493927l0 -18.69165c0 -3.6406555 -0.63635254 -6.8669434 -1.9091797 -9.678833c-1.2727051 -2.8118896 -3.0856934 -5.0391846 -5.4387207 -6.6819153l0.13317871 0c-2.36792 -1.6427612 -4.824585 -2.9599 -7.370117 -3.9514465c-2.5455322 -1.0063782 -5.0021973 -1.509552 -7.370117 -1.509552l-26.328125 0c-3.359497 0 -5.7199707 -0.9323425 -7.081543 -2.7970886c-1.3615723 -1.8647156 -2.0422363 -3.9736328 -2.0422363 -6.3267517l0 -13.918823c0 -2.2791138 0.68066406 -4.37323 2.0422363 -6.282364c1.3615723 -1.9091187 3.722046 -2.863678 7.081543 -2.863678l22.909424 0c3.3742676 0 5.7421875 0.9545593 7.10376 2.863678c1.3615723 1.9091339 2.0423584 4.00325 2.0423584 6.282364l0 6.8151245c0 4.2770386 2.6860352 6.4155273 8.058228 6.4155273c5.446167 0 8.169312 -2.1384888 8.169312 -6.4155273l0 -8.036072c0 -3.6406708 -0.63635254 -6.844742 -1.9091797 -9.612228c-1.2727051 -2.7822876 -3.0856934 -5.0392 -5.4387207 -6.7707367l0.13317871 0c-2.36792 -1.5391388 -4.824585 -2.8044739 -7.370117 -3.7960358c-2.5455322 -1.0063629 -5.0021973 -1.509552 -7.370117 -1.5095367z" fill-rule="evenodd"/><path fill="#0c343d" d="m1413.602 275.5698c3.359497 0 5.7421875 0.9323425 7.1480713 2.7970886c1.4207764 1.8647156 2.1312256 3.9292297 2.1312256 6.1935425l0 38.47107c0 2.1755066 -0.7104492 4.217804 -2.1312256 6.126953c-1.4058838 1.9091187 -3.7885742 2.863678 -7.1480713 2.863678l-16.915771 0c-3.359375 0 -5.7495117 -0.9545593 -7.170288 -2.863678c-1.4058838 -1.9091492 -2.1088867 -3.9514465 -2.1088867 -6.126953l0 -38.47107c0 -2.2643127 0.7030029 -4.328827 2.1088867 -6.1935425c1.4207764 -1.8647461 3.810913 -2.7970886 7.170288 -2.7970886zm-19.37976 -12.831085c-2.3531494 0 -4.8098145 0.5031738 -7.370117 1.5095215c-2.5455322 0.99157715 -4.9504395 2.2643127 -7.2147217 3.8182373l0.13317871 0c-2.36792 1.7315369 -4.1882324 3.9810486 -5.4610596 6.748535c-1.2727051 2.7674866 -1.9090576 5.9715576 -1.9090576 9.612213l0 38.737457c0 7.547699 2.456665 13.05307 7.370117 16.516144c2.36792 1.805542 4.7801514 3.1226807 7.2369385 3.9514465c2.456665 0.81396484 4.8615723 1.2209473 7.2147217 1.2209473l21.821655 0c4.824585 0 9.64917 -1.7241211 14.473877 -5.172394c4.8985596 -3.5518494 7.3479004 -9.057251 7.3479004 -16.516144l0 -38.737457c0 -3.6406555 -0.6364746 -6.8447266 -1.9091797 -9.612213c-1.2727051 -2.7674866 -3.0856934 -5.0169983 -5.4387207 -6.748535l0.13317871 0c-2.36792 -1.5539246 -4.80249 -2.8266602 -7.303589 -3.8182373c-2.5010986 -1.0063477 -4.935547 -1.5095215 -7.303467 -1.5095215z" fill-rule="evenodd"/><path fill="#0c343d" d="m1475.9208 262.6055c-2.2642822 0 -4.602661 0.48098755 -7.0148926 1.4429321c-2.4123535 0.9471741 -4.7580566 2.2421265 -7.0371094 3.8848572c-4.543457 3.5370483 -6.8151855 8.990631 -6.8151855 16.360748l0 38.870636c0 3.6406555 0.592041 6.852112 1.776001 9.63443c1.1838379 2.7674866 2.8636475 5.061371 5.0391846 6.881714c4.5582275 3.4482727 9.2421875 5.172394 14.052002 5.172394l22.909424 0c4.824707 0 9.649292 -1.7241211 14.473877 -5.172394c4.8985596 -3.5518494 7.3479004 -9.057251 7.3479004 -16.516144l0 -6.4155273c0 -4.2622375 -2.4936523 -6.3933716 -7.481079 -6.3933716c-5.0021973 0 -7.503296 2.131134 -7.503296 6.3933716l0 6.2823486c0 2.1755066 -0.7104492 4.217804 -2.1311035 6.126953c-1.4060059 1.9091187 -3.7886963 2.863678 -7.1481934 2.863678l-17.048828 0c-3.359497 0 -5.749634 -0.9545593 -7.17041 -2.863678c-1.4058838 -1.9091492 -2.1088867 -3.9514465 -2.1088867 -6.126953l0 -38.60428c0 -2.2643127 0.7030029 -4.328827 2.1088867 -6.1935425c1.4207764 -1.8647156 3.810913 -2.7970886 7.17041 -2.7970886l17.048828 0c3.359497 0 5.7421875 0.93237305 7.1481934 2.7970886c1.4206543 1.8647156 2.1311035 3.9292297 2.1311035 6.1935425l0 5.860565c0 4.3658447 2.5010986 6.5487366 7.503296 6.5487366c4.9874268 0 7.481079 -2.1828918 7.481079 -6.5487366l0 -6.8151245c0 -3.7294312 -0.65856934 -6.955719 -1.975708 -9.6788025c-1.3171387 -2.7230835 -3.0634766 -4.861603 -5.2390137 -6.415558c-2.2790527 -1.4503174 -4.73584 -2.6046753 -7.370117 -3.4630432c-2.6342773 -0.87316895 -5.046631 -1.3097534 -7.2369385 -1.3097534z" fill-rule="evenodd"/><path fill="#0c343d" d="m1545.6318 234.52362c-2.9155273 0 -5.4018555 0.9989624 -7.4589844 2.9968872c-2.0422363 1.9979095 -3.0634766 4.499008 -3.0634766 7.503296c0 2.9006805 1.0212402 5.357376 3.0634766 7.370102c2.057129 1.9979248 4.543457 2.9968872 7.4589844 2.9968872c2.9006348 0 5.3499756 -0.9989624 7.3479004 -2.9968872c2.0126953 -2.0127106 3.019043 -4.4694214 3.019043 -7.370102c0 -3.0042877 -1.0063477 -5.5053864 -3.019043 -7.503296c-1.9979248 -1.9979248 -4.4472656 -2.9968872 -7.3479004 -2.9968872zm0 27.682281c-5.0910645 0 -7.6364746 2.1829224 -7.6364746 6.5487366l0 70.371185c0 4.3658447 2.5454102 6.5487366 7.6364746 6.5487366c4.9873047 0 7.481079 -2.1828918 7.481079 -6.5487366l0 -70.371185c0 -4.365814 -2.4937744 -6.5487366 -7.481079 -6.5487366z" fill-rule="evenodd"/><path fill="#0c343d" d="m1595.1422 262.7387c-2.36792 0 -4.8468018 0.5031738 -7.4366455 1.5095215c-2.5899658 0.99157715 -5.0688477 2.2643127 -7.4367676 3.8182373l0.13317871 0c-2.2790527 1.7315369 -4.0771484 3.8700562 -5.394287 6.415558c-1.3172607 2.5455017 -1.9758301 5.6829834 -1.9758301 9.412415l0 1.2209473c0 4.721039 2.5455322 7.081543 7.6365967 7.081543c5.0909424 0 7.6364746 -2.3605042 7.6364746 -7.081543l0 -1.087738c0 -2.2791138 0.65856934 -4.2548523 1.975708 -5.927185c1.3319092 -1.6871033 3.722046 -2.5306702 7.170288 -2.5306702l15.961182 0c3.359497 0 5.7421875 0.9323425 7.1480713 2.7970886c1.4207764 1.8647156 2.1311035 3.9292297 2.1311035 6.1935425l0 12.697876l-30.146362 0c-2.36792 0 -4.824585 0.38479614 -7.370117 1.1543579c-2.5454102 0.7695923 -4.9577637 1.9313354 -7.2369385 3.48526l0.15539551 0c-2.3677979 1.6279297 -4.210327 3.8330383 -5.527466 6.6153564c-1.3172607 2.7674866 -1.9758301 6.0159607 -1.9758301 9.745392l0 6.681946c0 7.547699 2.227417 12.727478 6.682007 15.539368l0 -0.13317871c2.3530273 1.4651184 4.802368 2.582489 7.3479004 3.3520508c2.5603027 0.76956177 5.246338 1.1543579 8.058228 1.1543579l17.870361 0c1.7314453 0 3.0042725 -0.61416626 3.8182373 -1.8425293c0.81396484 -1.228363 1.2209473 -2.7526855 1.2209473 -4.5730286c0 -4.277008 -1.6798096 -6.4155273 -5.0391846 -6.4155273l-15.273071 0c-3.4630127 0 -5.897461 -0.606781 -7.303467 -1.820343c-1.4060059 -1.2283325 -2.1088867 -3.0264587 -2.1088867 -5.3943787l0 -5.3277893c0 -1.0951538 0.15539551 -2.0718994 0.46618652 -2.9302673c0.32556152 -0.8583679 0.85095215 -2.0645142 1.5760498 -3.6184692c0.63635254 -0.99154663 1.494751 -1.7167053 2.5751953 -2.1755066c1.0950928 -0.45877075 2.6490479 -0.6881714 4.661743 -0.6881714l27.549072 0l0.13330078 29.880005c0 1.2727661 0.19970703 2.2939148 0.59936523 3.0634766c0.41430664 0.76956177 0.96191406 1.3615417 1.6427002 1.77594c0.68078613 0.41436768 1.4503174 0.6659546 2.3087158 0.75476074c0.87316895 0.08880615 1.8129883 0.13317871 2.8192139 0.13317871c4.9874268 0 7.481201 -2.1828918 7.481201 -6.5487366l0 -54.69861c0 -3.6406555 -0.63635254 -6.8447266 -1.9091797 -9.612213c-1.2727051 -2.7674866 -3.0856934 -5.0169983 -5.4387207 -6.748535l0.13317871 0c-2.2791748 -1.5539246 -4.713623 -2.8266602 -7.303589 -3.8182373c-2.5898438 -1.0063477 -5.024292 -1.5095215 -7.303467 -1.5095215z" fill-rule="evenodd"/><path fill="#0c343d" d="m1663.3342 235.32278c-5.0909424 0 -7.6364746 2.1385193 -7.6364746 6.4155426l0 97.787094c0 4.2770386 2.5455322 6.415558 7.6364746 6.415558c5.0021973 0 7.503296 -2.1385193 7.503296 -6.415558l0 -97.787094c0 -4.2770233 -2.5010986 -6.4155426 -7.503296 -6.4155426z" fill-rule="evenodd"/></g></svg>