<svg version="1.1" viewBox="0.0 0.0 636.0 602.0" fill="none" stroke="none" stroke-linecap="square" stroke-miterlimit="10" xmlns:xlink="http://www.w3.org/1999/xlink" xmlns="http://www.w3.org/2000/svg"><clipPath id="p.0"><path d="m0 0l636.0 0l0 602.0l-636.0 0l0 -602.0z" clip-rule="nonzero"/></clipPath><g clip-path="url(#p.0)"><path fill="#000000" fill-opacity="0.0" d="m0 0l636.0 0l0 602.0l-636.0 0z" fill-rule="evenodd"/><path fill="#0c343d" d="m11.975459 109.66073l0 0c0 -53.388596 43.280006 -96.6686 96.6686 -96.6686l420.6786 0c25.638062 0 50.226135 10.184699 68.35498 28.313576c18.128906 18.12888 28.313599 42.71692 28.313599 68.35503l0 386.66278c0 53.38858 -43.28003 96.66861 -96.66858 96.66861l-420.6786 0c-53.38859 0 -96.6686 -43.28003 -96.6686 -96.66861z" fill-rule="evenodd"/><path fill="#ffffff" d="m88.98333 302.99213l0 0c0 -125.36429 102.97451 -226.99213 230.0 -226.99213l0 0c60.999786 0 119.50119 23.915176 162.63455 66.48445c43.133392 42.56929 67.36545 100.30562 67.36545 160.50768l0 0c0 125.36429 -102.97452 226.99213 -230.0 226.99213l0 0c-127.0255 0 -230.0 -101.62784 -230.0 -226.99213zm25.032692 0l0 0c0 111.53912 91.767 201.95944 204.96732 201.95944c113.20032 0 204.96729 -90.42032 204.96729 -201.95944l0 0c0 -111.53912 -91.76697 -201.95944 -204.96729 -201.95944l0 0c-113.20032 0 -204.96732 90.42031 -204.96732 201.95944z" fill-rule="evenodd"/><path fill="#ffffff" d="m32.983334 184.0l94.91417 -8.485962l8.093712 -99.51404l8.093704 99.51404l94.91417 8.485962l-94.91417 8.485962l-8.093704 99.51404l-8.093712 -99.51404z" fill-rule="evenodd"/></g></svg>